<?xml version="1.0" encoding="UTF-8" standalone="no"?>
<svg width="97px" height="86px" viewBox="0 0 97 86" version="1.1" xmlns="http://www.w3.org/2000/svg" xmlns:xlink="http://www.w3.org/1999/xlink">
    <!-- Generator: Sketch 50.2 (55047) - http://www.bohemiancoding.com/sketch -->
    <title>42</title>
    <desc>Created with Sketch.</desc>
    <defs></defs>
    <g id="Page-1" stroke="none" stroke-width="1" fill="none" fill-rule="evenodd">
        <g id="Startpage" transform="translate(-354.000000, -50.000000)">
            <g id="42" transform="translate(354.000000, 50.000000)">
                <path d="M61.795,29.694 C61.795,30.756 60.932,31.619 59.871,31.619 L54.108,31.619 C53.739,31.619 53.44,31.919 53.44,32.288 L53.44,34.542 L54.777,34.542 L54.777,32.774 L61.795,32.774 L61.795,40.767 L46.36,40.767 L46.36,27.437 C46.36,26.376 47.224,25.513 48.284,25.513 L54.777,25.513 L54.777,21.991 C54.777,21.622 54.477,21.322 54.108,21.322 C53.739,21.322 53.44,21.622 53.44,21.991 L53.44,24.086 L48.284,24.086 C47.224,24.086 46.36,23.223 46.36,22.162 L46.36,17.071 C46.36,16.01 47.224,15.147 48.284,15.147 L59.871,15.147 C60.932,15.147 61.795,16.01 61.795,17.071 L61.795,29.694 Z M45.266,40.767 L38.066,40.767 L38.066,33.387 L31.573,33.387 C30.512,33.387 29.649,32.524 29.649,31.464 L29.649,15.086 L36.788,15.086 L36.788,26.702 C36.788,26.975 37.011,27.198 37.284,27.198 L38.066,27.198 L38.066,15.147 L45.266,15.147 L45.266,40.767 Z M46.324,0 C31.233,0 19,12.234 19,27.324 C19,42.415 31.233,54.648 46.324,54.648 C61.415,54.648 73.649,42.415 73.649,27.324 C73.649,12.234 61.415,0 46.324,0 Z" id="Fill-1" fill="#FEFEFE"></path>
                <path d="M2.73144531,79.4335938 L2.73144531,85 L0.856445312,85 L0.856445312,70.78125 L6.10058594,70.78125 C7.6565833,70.78125 8.87564663,71.1783814 9.7578125,71.9726562 C10.6399784,72.7669311 11.0810547,73.8183528 11.0810547,75.1269531 C11.0810547,76.5071684 10.6497439,77.5699833 9.78710938,78.3154297 C8.92447485,79.0608761 7.68913564,79.4335938 6.08105469,79.4335938 L2.73144531,79.4335938 Z M2.73144531,77.9003906 L6.10058594,77.9003906 C7.10319512,77.9003906 7.8714166,77.6643904 8.40527344,77.1923828 C8.93913027,76.7203752 9.20605469,76.0384159 9.20605469,75.1464844 C9.20605469,74.300126 8.93913027,73.6230494 8.40527344,73.1152344 C7.8714166,72.6074193 7.13900205,72.3437501 6.20800781,72.3242188 L2.73144531,72.3242188 L2.73144531,77.9003906 Z M18.6884766,79.2480469 L15.3486328,79.2480469 L15.3486328,85 L13.4638672,85 L13.4638672,70.78125 L18.1708984,70.78125 C19.7724689,70.78125 21.004553,71.1458297 21.8671875,71.875 C22.729822,72.6041703 23.1611328,73.6653576 23.1611328,75.0585938 C23.1611328,75.9440148 22.9218774,76.7154915 22.4433594,77.3730469 C21.9648414,78.0306022 21.2991579,78.5221338 20.4462891,78.8476562 L23.7861328,84.8828125 L23.7861328,85 L21.7744141,85 L18.6884766,79.2480469 Z M15.3486328,77.7148438 L18.2294922,77.7148438 C19.1604864,77.7148438 19.9010389,77.4739607 20.4511719,76.9921875 C21.0013048,76.5104143 21.2763672,75.8658895 21.2763672,75.0585938 C21.2763672,74.1796831 21.0143255,73.5058617 20.4902344,73.0371094 C19.9661432,72.568357 19.2093148,72.3307292 18.2197266,72.3242188 L15.3486328,72.3242188 L15.3486328,77.7148438 Z M33.8251953,78.4277344 L27.6630859,78.4277344 L27.6630859,83.4667969 L34.8212891,83.4667969 L34.8212891,85 L25.7880859,85 L25.7880859,70.78125 L34.7236328,70.78125 L34.7236328,72.3242188 L27.6630859,72.3242188 L27.6630859,76.8945312 L33.8251953,76.8945312 L33.8251953,78.4277344 Z M41.3447266,78.6621094 C39.7366456,78.1998675 38.5664099,77.6318393 37.8339844,76.9580078 C37.1015588,76.2841763 36.7353516,75.4524789 36.7353516,74.4628906 C36.7353516,73.3430934 37.1829382,72.4169958 38.078125,71.6845703 C38.9733118,70.9521448 40.1370371,70.5859375 41.5693359,70.5859375 C42.5459033,70.5859375 43.4166628,70.7747377 44.1816406,71.1523438 C44.9466184,71.5299498 45.5390604,72.0507779 45.9589844,72.7148438 C46.3789083,73.3789096 46.5888672,74.1048138 46.5888672,74.8925781 L44.7041016,74.8925781 C44.7041016,74.0331988 44.4306668,73.3577499 43.8837891,72.8662109 C43.3369113,72.374672 42.5654347,72.1289062 41.5693359,72.1289062 C40.6448521,72.1289062 39.9238307,72.3323547 39.40625,72.7392578 C38.8886693,73.1461609 38.6298828,73.7109339 38.6298828,74.4335938 C38.6298828,75.0130237 38.8756486,75.5029277 39.3671875,75.9033203 C39.8587264,76.3037129 40.6953066,76.6699202 41.8769531,77.0019531 C43.0585997,77.333986 43.9830696,77.7001933 44.6503906,78.1005859 C45.3177117,78.5009786 45.8124984,78.9680963 46.1347656,79.5019531 C46.4570329,80.03581 46.6181641,80.6640589 46.6181641,81.3867188 C46.6181641,82.5390683 46.1689498,83.4619106 45.2705078,84.1552734 C44.3720658,84.8486363 43.170906,85.1953125 41.6669922,85.1953125 C40.6904248,85.1953125 39.7789756,85.0081399 38.9326172,84.6337891 C38.0862588,84.2594382 37.433596,83.746748 36.9746094,83.0957031 C36.5156227,82.4446582 36.2861328,81.7057333 36.2861328,80.8789062 L38.1708984,80.8789062 C38.1708984,81.7382855 38.4882781,82.4169897 39.1230469,82.9150391 C39.7578157,83.4130884 40.605789,83.6621094 41.6669922,83.6621094 C42.6565805,83.6621094 43.4150364,83.4602885 43.9423828,83.0566406 C44.4697292,82.6529928 44.7333984,82.1028681 44.7333984,81.40625 C44.7333984,80.7096319 44.4892603,80.1709003 44.0009766,79.7900391 C43.5126929,79.4091778 42.6272851,79.033205 41.3447266,78.6621094 Z M57.0576172,78.4277344 L50.8955078,78.4277344 L50.8955078,83.4667969 L58.0537109,83.4667969 L58.0537109,85 L49.0205078,85 L49.0205078,70.78125 L57.9560547,70.78125 L57.9560547,72.3242188 L50.8955078,72.3242188 L50.8955078,76.8945312 L57.0576172,76.8945312 L57.0576172,78.4277344 Z M71.3154297,85 L69.4306641,85 L62.2724609,74.0429688 L62.2724609,85 L60.3876953,85 L60.3876953,70.78125 L62.2724609,70.78125 L69.4501953,81.7871094 L69.4501953,70.78125 L71.3154297,70.78125 L71.3154297,85 Z M84.4697266,72.3242188 L79.8994141,72.3242188 L79.8994141,85 L78.0341797,85 L78.0341797,72.3242188 L73.4736328,72.3242188 L73.4736328,70.78125 L84.4697266,70.78125 L84.4697266,72.3242188 Z M90.7685547,78.6621094 C89.1604737,78.1998675 87.990238,77.6318393 87.2578125,76.9580078 C86.525387,76.2841763 86.1591797,75.4524789 86.1591797,74.4628906 C86.1591797,73.3430934 86.6067664,72.4169958 87.5019531,71.6845703 C88.3971399,70.9521448 89.5608652,70.5859375 90.9931641,70.5859375 C91.9697314,70.5859375 92.840491,70.7747377 93.6054688,71.1523438 C94.3704465,71.5299498 94.9628885,72.0507779 95.3828125,72.7148438 C95.8027365,73.3789096 96.0126953,74.1048138 96.0126953,74.8925781 L94.1279297,74.8925781 C94.1279297,74.0331988 93.8544949,73.3577499 93.3076172,72.8662109 C92.7607395,72.374672 91.9892628,72.1289062 90.9931641,72.1289062 C90.0686803,72.1289062 89.3476588,72.3323547 88.8300781,72.7392578 C88.3124974,73.1461609 88.0537109,73.7109339 88.0537109,74.4335938 C88.0537109,75.0130237 88.2994767,75.5029277 88.7910156,75.9033203 C89.2825545,76.3037129 90.1191347,76.6699202 91.3007812,77.0019531 C92.4824278,77.333986 93.4068977,77.7001933 94.0742188,78.1005859 C94.7415398,78.5009786 95.2363265,78.9680963 95.5585938,79.5019531 C95.880861,80.03581 96.0419922,80.6640589 96.0419922,81.3867188 C96.0419922,82.5390683 95.5927779,83.4619106 94.6943359,84.1552734 C93.7958939,84.8486363 92.5947341,85.1953125 91.0908203,85.1953125 C90.1142529,85.1953125 89.2028037,85.0081399 88.3564453,84.6337891 C87.5100869,84.2594382 86.8574242,83.746748 86.3984375,83.0957031 C85.9394508,82.4446582 85.7099609,81.7057333 85.7099609,80.8789062 L87.5947266,80.8789062 C87.5947266,81.7382855 87.9121062,82.4169897 88.546875,82.9150391 C89.1816438,83.4130884 90.0296171,83.6621094 91.0908203,83.6621094 C92.0804086,83.6621094 92.8388646,83.4602885 93.3662109,83.0566406 C93.8935573,82.6529928 94.1572266,82.1028681 94.1572266,81.40625 C94.1572266,80.7096319 93.9130884,80.1709003 93.4248047,79.7900391 C92.936521,79.4091778 92.0511132,79.033205 90.7685547,78.6621094 Z" id="presents" fill="#FFFFFF"></path>
            </g>
        </g>
    </g>
</svg>