<?xml version="1.0" encoding="UTF-8" standalone="no"?>
<svg width="55px" height="55px" viewBox="0 0 55 55" version="1.1" xmlns="http://www.w3.org/2000/svg" xmlns:xlink="http://www.w3.org/1999/xlink">
    <!-- Generator: Sketch 50.2 (55047) - http://www.bohemiancoding.com/sketch -->
    <title>42logo</title>
    <desc>Created with Sketch.</desc>
    <defs></defs>
    <g id="Page-1" stroke="none" stroke-width="1" fill="none" fill-rule="evenodd">
        <g id="Artboard-1" transform="translate(-353.000000, -120.000000)" fill="#FEFEFE">
            <path d="M395.795,149.694 C395.795,150.756 394.932,151.619 393.871,151.619 L388.108,151.619 C387.739,151.619 387.44,151.919 387.44,152.288 L387.44,154.542 L388.777,154.542 L388.777,152.774 L395.795,152.774 L395.795,160.767 L380.36,160.767 L380.36,147.437 C380.36,146.376 381.224,145.513 382.284,145.513 L388.777,145.513 L388.777,141.991 C388.777,141.622 388.477,141.322 388.108,141.322 C387.739,141.322 387.44,141.622 387.44,141.991 L387.44,144.086 L382.284,144.086 C381.224,144.086 380.36,143.223 380.36,142.162 L380.36,137.071 C380.36,136.01 381.224,135.147 382.284,135.147 L393.871,135.147 C394.932,135.147 395.795,136.01 395.795,137.071 L395.795,149.694 Z M379.266,160.767 L372.066,160.767 L372.066,153.387 L365.573,153.387 C364.512,153.387 363.649,152.524 363.649,151.464 L363.649,135.086 L370.788,135.086 L370.788,146.702 C370.788,146.975 371.011,147.198 371.284,147.198 L372.066,147.198 L372.066,135.147 L379.266,135.147 L379.266,160.767 Z M380.324,120 C365.233,120 353,132.234 353,147.324 C353,162.415 365.233,174.648 380.324,174.648 C395.415,174.648 407.649,162.415 407.649,147.324 C407.649,132.234 395.415,120 380.324,120 Z" id="42logo"></path>
        </g>
    </g>
</svg>