<?xml version="1.0" encoding="UTF-8" standalone="no"?>
<svg width="427px" height="303px" viewBox="0 0 427 303" version="1.1" xmlns="http://www.w3.org/2000/svg" xmlns:xlink="http://www.w3.org/1999/xlink">
    <!-- Generator: Sketch 50.2 (55047) - http://www.bohemiancoding.com/sketch -->
    <title>Boat</title>
    <desc>Created with Sketch.</desc>
    <defs></defs>
    <g id="Page-1" stroke="none" stroke-width="1" fill="none" fill-rule="evenodd">
        <g id="Artboard-1">
            <g id="Boat">
                <polygon id="Fill-1" fill="#41A59E" points="0 302.511 427.478 302.511 427.478 101.838 0 101.838"></polygon>
                <polygon id="Fill-2" fill="#FEFEFE" points="138.166 76.171 150.166 76.171 150.166 65.171 138.166 65.171"></polygon>
                <polygon id="Fill-3" fill="#0E6A5B" points="136.513 65.171 151.819 65.171 151.819 59.904 136.513 59.904"></polygon>
                <polygon id="Fill-4" fill="#0E6A5B" points="263.7826 54.9764 219.5036 54.9764 223.2536 46.5384 263.7826 46.5384"></polygon>
                <polygon id="Fill-5" fill="#FEFEFE" points="222.004 76.171 263.783 76.171 263.783 54.977 222.004 54.977"></polygon>
                <polygon id="Fill-6" fill="#0E6A5B" points="249.67 46.539 255.042 46.539 255.042 40.14 249.67 40.14"></polygon>
                <polygon id="Fill-7" fill="#0E6A5B" points="258.411 46.539 263.783 46.539 263.783 34.772 258.411 34.772"></polygon>
                <path d="M352.3695,0.0008 C346.5455,0.0008 341.4675,3.1468 338.7045,7.8228 C336.6695,6.5038 334.2485,5.7298 331.6425,5.7298 C324.4915,5.7298 318.6925,11.5008 318.6365,18.6388 C317.8235,18.4838 316.9875,18.3958 316.1305,18.3958 C308.7525,18.3958 302.7715,24.3768 302.7715,31.7538 L315.8805,31.7538 L329.4895,31.7538 L352.3695,31.7538 C361.1385,31.7538 368.2465,24.6458 368.2465,15.8768 C368.2465,7.1088 361.1385,0.0008 352.3695,0.0008" id="Fill-8" fill="#ECECEB"></path>
                <path d="M288.3353,18.4178 C285.8893,18.4178 283.7573,19.7388 282.5973,21.7028 C281.7413,21.1488 280.7253,20.8248 279.6313,20.8248 C276.6273,20.8248 274.1913,23.2478 274.1683,26.2458 C273.8273,26.1808 273.4763,26.1438 273.1153,26.1438 C270.0183,26.1438 267.5053,28.6548 267.5053,31.7538 L273.0113,31.7538 L278.7273,31.7538 L288.3353,31.7538 C292.0183,31.7538 295.0033,28.7688 295.0033,25.0858 C295.0033,21.4028 292.0183,18.4178 288.3353,18.4178" id="Fill-10" fill="#ECECEB"></path>
                <polygon id="Fill-12" fill="#0E6A5B" points="265.5033 101.8377 136.0003 101.8377 126.4993 76.1707 273.5033 76.1707"></polygon>
                <polygon id="Fill-14" fill="#239288" points="407.4105 302.5106 136.7435 302.5106 136.0005 101.8376 265.5035 101.8376"></polygon>
            </g>
        </g>
    </g>
</svg>