<?xml version="1.0" encoding="UTF-8" standalone="no"?>
<svg width="260px" height="55px" viewBox="0 0 260 55" version="1.1" xmlns="http://www.w3.org/2000/svg" xmlns:xlink="http://www.w3.org/1999/xlink">
    <!-- Generator: Sketch 50.2 (55047) - http://www.bohemiancoding.com/sketch -->
    <title>Button</title>
    <desc>Created with Sketch.</desc>
    <defs></defs>
    <g id="Page-1" stroke="none" stroke-width="1" fill="none" fill-rule="evenodd">
        <g id="Startpage" transform="translate(-270.000000, -462.000000)">
            <g id="Button" transform="translate(270.000000, 462.000000)">
                <path d="M36.7548828,29.3945312 L36.7548828,35 L34.7724609,35 L34.7724609,20.78125 L39.4404297,20.78125 C40.7685613,20.78125 41.8102176,21.1767539 42.5654297,21.9677734 C43.3206418,22.758793 43.6982422,23.7988217 43.6982422,25.0878906 C43.6982422,26.38347 43.3206418,27.4251263 42.5654297,28.2128906 C41.8102176,29.000655 40.7685613,29.3945312 39.4404297,29.3945312 L36.7548828,29.3945312 Z M36.7548828,27.8710938 L39.4404297,27.8710938 C40.1891313,27.8710938 40.7555319,27.6090521 41.1396484,27.0849609 C41.5237649,26.5608698 41.7158203,25.9016967 41.7158203,25.1074219 C41.7158203,24.3001262 41.5253925,23.6311875 41.1445312,23.1005859 C40.76367,22.5699843 40.1956418,22.3046875 39.4404297,22.3046875 L36.7548828,22.3046875 L36.7548828,27.8710938 Z M47.8095703,28.8769531 L47.8095703,35 L45.8271484,35 L45.8271484,20.7910156 L50.2509766,20.7910156 C51.5986396,20.7910156 52.6402958,21.1393194 53.3759766,21.8359375 C54.1116573,22.5325556 54.4794922,23.5318945 54.4794922,24.8339844 C54.4794922,25.5761756 54.3085955,26.2239556 53.9667969,26.7773438 C53.6249983,27.3307319 53.1318392,27.7636703 52.4873047,28.0761719 C53.1969437,28.3170585 53.7096338,28.7255831 54.0253906,29.3017578 C54.3411474,29.8779326 54.4990234,30.5891885 54.4990234,31.4355469 L54.4990234,32.6757812 C54.4990234,33.1119813 54.5429683,33.5172507 54.6308594,33.8916016 C54.7187504,34.2659524 54.8701161,34.5605458 55.0849609,34.7753906 L55.0849609,35 L53.0439453,35 C52.82259,34.7851552 52.6809899,34.4612652 52.6191406,34.0283203 C52.5572914,33.5953754 52.5263672,33.1380232 52.5263672,32.65625 L52.5263672,31.4550781 C52.5263672,30.6608033 52.3457049,30.0325544 51.984375,29.5703125 C51.6230451,29.1080706 51.1266308,28.8769531 50.4951172,28.8769531 L47.8095703,28.8769531 Z M47.8095703,27.3632812 L50.1533203,27.3632812 C50.9541056,27.3632812 51.54492,27.1468121 51.9257812,26.7138672 C52.3066425,26.2809223 52.4970703,25.6673217 52.4970703,24.8730469 C52.4970703,24.0592407 52.3115253,23.4277366 51.9404297,22.9785156 C51.5693341,22.5292946 51.0061887,22.3046875 50.2509766,22.3046875 L47.8095703,22.3046875 L47.8095703,27.3632812 Z M64.4306641,28.3984375 L59.1572266,28.3984375 L59.1572266,33.4960938 L65.2705078,33.4960938 L65.2705078,35 L57.1748047,35 L57.1748047,20.78125 L65.2119141,20.78125 L65.2119141,22.3046875 L59.1572266,22.3046875 L59.1572266,26.8847656 L64.4306641,26.8847656 L64.4306641,28.3984375 Z M73.6201172,31.4257812 C73.6201172,30.755205 73.431317,30.2050803 73.0537109,29.7753906 C72.6761049,29.345701 72.0153042,28.9681006 71.0712891,28.6425781 C69.7171156,28.2324198 68.6787146,27.6969434 67.9560547,27.0361328 C67.2333948,26.3753222 66.8720703,25.5013075 66.8720703,24.4140625 C66.8720703,23.2942652 67.2740845,22.3746781 68.078125,21.6552734 C68.8821655,20.9358688 69.9156838,20.5761719 71.1787109,20.5761719 C72.4938217,20.5761719 73.5533814,20.9912068 74.3574219,21.8212891 C75.1614624,22.6513713 75.5504559,23.6523379 75.5244141,24.8242188 L75.5048828,24.8828125 L73.6005859,24.8828125 C73.6005859,24.0559854 73.3873719,23.3837917 72.9609375,22.8662109 C72.5345031,22.3486302 71.9339231,22.0898438 71.1591797,22.0898438 C70.4234989,22.0898438 69.8554708,22.3063129 69.4550781,22.7392578 C69.0546855,23.1722027 68.8544922,23.723955 68.8544922,24.3945312 C68.8544922,25.000003 69.0693338,25.509438 69.4990234,25.9228516 C69.9287131,26.3362651 70.6383414,26.7122379 71.6279297,27.0507812 C72.9235091,27.4544291 73.9098273,28.0045538 74.5869141,28.7011719 C75.2640008,29.3977899 75.6025391,30.2994736 75.6025391,31.40625 C75.6025391,32.5716204 75.2021524,33.4960903 74.4013672,34.1796875 C73.6005819,34.8632847 72.5491602,35.2050781 71.2470703,35.2050781 C69.9775327,35.2050781 68.8691454,34.8291053 67.921875,34.0771484 C66.9746046,33.3251916 66.5172524,32.2656318 66.5498047,30.8984375 L66.5693359,30.8398438 L68.4736328,30.8398438 C68.4736328,31.8164111 68.7291641,32.5390602 69.2402344,33.0078125 C69.7513046,33.4765648 70.4202433,33.7109375 71.2470703,33.7109375 C71.9892615,33.7109375 72.5703104,33.5042338 72.9902344,33.0908203 C73.4101583,32.6774068 73.6201172,32.1223993 73.6201172,31.4257812 Z M84.2353516,31.4257812 C84.2353516,30.755205 84.0465514,30.2050803 83.6689453,29.7753906 C83.2913393,29.345701 82.6305386,28.9681006 81.6865234,28.6425781 C80.33235,28.2324198 79.2939489,27.6969434 78.5712891,27.0361328 C77.8486292,26.3753222 77.4873047,25.5013075 77.4873047,24.4140625 C77.4873047,23.2942652 77.8893189,22.3746781 78.6933594,21.6552734 C79.4973999,20.9358688 80.5309182,20.5761719 81.7939453,20.5761719 C83.1090561,20.5761719 84.1686158,20.9912068 84.9726562,21.8212891 C85.7766967,22.6513713 86.1656902,23.6523379 86.1396484,24.8242188 L86.1201172,24.8828125 L84.2158203,24.8828125 C84.2158203,24.0559854 84.0026063,23.3837917 83.5761719,22.8662109 C83.1497375,22.3486302 82.5491575,22.0898438 81.7744141,22.0898438 C81.0387333,22.0898438 80.4707051,22.3063129 80.0703125,22.7392578 C79.6699199,23.1722027 79.4697266,23.723955 79.4697266,24.3945312 C79.4697266,25.000003 79.6845682,25.509438 80.1142578,25.9228516 C80.5439475,26.3362651 81.2535758,26.7122379 82.2431641,27.0507812 C83.5387435,27.4544291 84.5250617,28.0045538 85.2021484,28.7011719 C85.8792352,29.3977899 86.2177734,30.2994736 86.2177734,31.40625 C86.2177734,32.5716204 85.8173868,33.4960903 85.0166016,34.1796875 C84.2158163,34.8632847 83.1643945,35.2050781 81.8623047,35.2050781 C80.5927671,35.2050781 79.4843797,34.8291053 78.5371094,34.0771484 C77.589839,33.3251916 77.1324868,32.2656318 77.1650391,30.8984375 L77.1845703,30.8398438 L79.0888672,30.8398438 C79.0888672,31.8164111 79.3443985,32.5390602 79.8554688,33.0078125 C80.366539,33.4765648 81.0354776,33.7109375 81.8623047,33.7109375 C82.6044959,33.7109375 83.1855448,33.5042338 83.6054688,33.0908203 C84.0253927,32.6774068 84.2353516,32.1223993 84.2353516,31.4257812 Z M99.9580078,28.3984375 L94.6845703,28.3984375 L94.6845703,33.4960938 L100.797852,33.4960938 L100.797852,35 L92.7021484,35 L92.7021484,20.78125 L100.739258,20.78125 L100.739258,22.3046875 L94.6845703,22.3046875 L94.6845703,26.8847656 L99.9580078,26.8847656 L99.9580078,28.3984375 Z M112.047852,35 L110.075195,35 L104.68457,24.4238281 L104.625977,24.4433594 L104.625977,35 L102.643555,35 L102.643555,20.78125 L104.625977,20.78125 L110.016602,31.328125 L110.075195,31.3085938 L110.075195,20.78125 L112.047852,20.78125 L112.047852,35 Z M123.053711,22.3046875 L119.401367,22.3046875 L119.401367,35 L117.418945,35 L117.418945,22.3046875 L113.786133,22.3046875 L113.786133,20.78125 L123.053711,20.78125 L123.053711,22.3046875 Z M132.018555,28.3984375 L126.745117,28.3984375 L126.745117,33.4960938 L132.858398,33.4960938 L132.858398,35 L124.762695,35 L124.762695,20.78125 L132.799805,20.78125 L132.799805,22.3046875 L126.745117,22.3046875 L126.745117,26.8847656 L132.018555,26.8847656 L132.018555,28.3984375 Z M136.686523,28.8769531 L136.686523,35 L134.704102,35 L134.704102,20.7910156 L139.12793,20.7910156 C140.475593,20.7910156 141.517249,21.1393194 142.25293,21.8359375 C142.98861,22.5325556 143.356445,23.5318945 143.356445,24.8339844 C143.356445,25.5761756 143.185549,26.2239556 142.84375,26.7773438 C142.501951,27.3307319 142.008792,27.7636703 141.364258,28.0761719 C142.073897,28.3170585 142.586587,28.7255831 142.902344,29.3017578 C143.218101,29.8779326 143.375977,30.5891885 143.375977,31.4355469 L143.375977,32.6757812 C143.375977,33.1119813 143.419921,33.5172507 143.507812,33.8916016 C143.595704,34.2659524 143.747069,34.5605458 143.961914,34.7753906 L143.961914,35 L141.920898,35 C141.699543,34.7851552 141.557943,34.4612652 141.496094,34.0283203 C141.434244,33.5953754 141.40332,33.1380232 141.40332,32.65625 L141.40332,31.4550781 C141.40332,30.6608033 141.222658,30.0325544 140.861328,29.5703125 C140.499998,29.1080706 140.003584,28.8769531 139.37207,28.8769531 L136.686523,28.8769531 Z M136.686523,27.3632812 L139.030273,27.3632812 C139.831059,27.3632812 140.421873,27.1468121 140.802734,26.7138672 C141.183596,26.2809223 141.374023,25.6673217 141.374023,24.8730469 C141.374023,24.0592407 141.188478,23.4277366 140.817383,22.9785156 C140.446287,22.5292946 139.883142,22.3046875 139.12793,22.3046875 L136.686523,22.3046875 L136.686523,27.3632812 Z M158.639648,22.3046875 L154.987305,22.3046875 L154.987305,35 L153.004883,35 L153.004883,22.3046875 L149.37207,22.3046875 L149.37207,20.78125 L158.639648,20.78125 L158.639648,22.3046875 Z M169.401367,29.8535156 C169.401367,31.539722 168.965174,32.8531854 168.092773,33.7939453 C167.220373,34.7347052 166.051765,35.2050781 164.586914,35.2050781 C163.141594,35.2050781 161.992517,34.7347052 161.139648,33.7939453 C160.28678,32.8531854 159.860352,31.539722 159.860352,29.8535156 L159.860352,25.9472656 C159.860352,24.2675697 160.288407,22.9524787 161.144531,22.0019531 C162.000655,21.0514275 163.148105,20.5761719 164.586914,20.5761719 C166.045255,20.5761719 167.212235,21.0514275 168.087891,22.0019531 C168.963546,22.9524787 169.401367,24.2675697 169.401367,25.9472656 L169.401367,29.8535156 Z M167.428711,25.9179688 C167.428711,24.6809834 167.181318,23.7418652 166.686523,23.1005859 C166.191729,22.4593067 165.491867,22.1386719 164.586914,22.1386719 C163.694983,22.1386719 163.011396,22.4593067 162.536133,23.1005859 C162.06087,23.7418652 161.823242,24.6809834 161.823242,25.9179688 L161.823242,29.8535156 C161.823242,31.1035219 162.062498,32.050778 162.541016,32.6953125 C163.019534,33.339847 163.701493,33.6621094 164.586914,33.6621094 C165.498377,33.6621094 166.199867,33.3414746 166.691406,32.7001953 C167.182945,32.0589161 167.428711,31.1100323 167.428711,29.8535156 L167.428711,25.9179688 Z M182.536133,31.4257812 C182.536133,30.755205 182.347333,30.2050803 181.969727,29.7753906 C181.592121,29.345701 180.93132,28.9681006 179.987305,28.6425781 C178.633131,28.2324198 177.59473,27.6969434 176.87207,27.0361328 C176.14941,26.3753222 175.788086,25.5013075 175.788086,24.4140625 C175.788086,23.2942652 176.1901,22.3746781 176.994141,21.6552734 C177.798181,20.9358688 178.831699,20.5761719 180.094727,20.5761719 C181.409837,20.5761719 182.469397,20.9912068 183.273438,21.8212891 C184.077478,22.6513713 184.466471,23.6523379 184.44043,24.8242188 L184.420898,24.8828125 L182.516602,24.8828125 C182.516602,24.0559854 182.303388,23.3837917 181.876953,22.8662109 C181.450519,22.3486302 180.849939,22.0898438 180.075195,22.0898438 C179.339515,22.0898438 178.771486,22.3063129 178.371094,22.7392578 C177.970701,23.1722027 177.770508,23.723955 177.770508,24.3945312 C177.770508,25.000003 177.985349,25.509438 178.415039,25.9228516 C178.844729,26.3362651 179.554357,26.7122379 180.543945,27.0507812 C181.839525,27.4544291 182.825843,28.0045538 183.50293,28.7011719 C184.180016,29.3977899 184.518555,30.2994736 184.518555,31.40625 C184.518555,32.5716204 184.118168,33.4960903 183.317383,34.1796875 C182.516598,34.8632847 181.465176,35.2050781 180.163086,35.2050781 C178.893548,35.2050781 177.785161,34.8291053 176.837891,34.0771484 C175.89062,33.3251916 175.433268,32.2656318 175.46582,30.8984375 L175.485352,30.8398438 L177.389648,30.8398438 C177.389648,31.8164111 177.64518,32.5390602 178.15625,33.0078125 C178.66732,33.4765648 179.336259,33.7109375 180.163086,33.7109375 C180.905277,33.7109375 181.486326,33.5042338 181.90625,33.0908203 C182.326174,32.6774068 182.536133,32.1223993 182.536133,31.4257812 Z M194.879883,22.3046875 L191.227539,22.3046875 L191.227539,35 L189.245117,35 L189.245117,22.3046875 L185.612305,22.3046875 L185.612305,20.78125 L194.879883,20.78125 L194.879883,22.3046875 Z M203.053711,31.40625 L198.522461,31.40625 L197.487305,35 L195.475586,35 L199.850586,20.78125 L201.764648,20.78125 L206.100586,35 L204.088867,35 L203.053711,31.40625 Z M198.981445,29.8339844 L202.604492,29.8339844 L200.827148,23.6230469 L200.768555,23.6230469 L198.981445,29.8339844 Z M209.674805,28.8769531 L209.674805,35 L207.692383,35 L207.692383,20.7910156 L212.116211,20.7910156 C213.463874,20.7910156 214.50553,21.1393194 215.241211,21.8359375 C215.976892,22.5325556 216.344727,23.5318945 216.344727,24.8339844 C216.344727,25.5761756 216.17383,26.2239556 215.832031,26.7773438 C215.490233,27.3307319 214.997074,27.7636703 214.352539,28.0761719 C215.062178,28.3170585 215.574868,28.7255831 215.890625,29.3017578 C216.206382,29.8779326 216.364258,30.5891885 216.364258,31.4355469 L216.364258,32.6757812 C216.364258,33.1119813 216.408203,33.5172507 216.496094,33.8916016 C216.583985,34.2659524 216.73535,34.5605458 216.950195,34.7753906 L216.950195,35 L214.90918,35 C214.687824,34.7851552 214.546224,34.4612652 214.484375,34.0283203 C214.422526,33.5953754 214.391602,33.1380232 214.391602,32.65625 L214.391602,31.4550781 C214.391602,30.6608033 214.210939,30.0325544 213.849609,29.5703125 C213.488279,29.1080706 212.991865,28.8769531 212.360352,28.8769531 L209.674805,28.8769531 Z M209.674805,27.3632812 L212.018555,27.3632812 C212.81934,27.3632812 213.410154,27.1468121 213.791016,26.7138672 C214.171877,26.2809223 214.362305,25.6673217 214.362305,24.8730469 C214.362305,24.0592407 214.17676,23.4277366 213.805664,22.9785156 C213.434568,22.5292946 212.871423,22.3046875 212.116211,22.3046875 L209.674805,22.3046875 L209.674805,27.3632812 Z M227.272461,22.3046875 L223.620117,22.3046875 L223.620117,35 L221.637695,35 L221.637695,22.3046875 L218.004883,22.3046875 L218.004883,20.78125 L227.272461,20.78125 L227.272461,22.3046875 Z" id="press-enter-to-start" fill="#FFFFFF"></path>
                <rect id="Rectangle" stroke="#FFFFFF" x="0.5" y="0.5" width="259" height="54" rx="5"></rect>
            </g>
        </g>
    </g>
</svg>