<?xml version="1.0" encoding="UTF-8" standalone="no"?>
<svg width="97px" height="55px" viewBox="0 0 97 55" version="1.1" xmlns="http://www.w3.org/2000/svg" xmlns:xlink="http://www.w3.org/1999/xlink">
    <!-- Generator: Sketch 50.2 (55047) - http://www.bohemiancoding.com/sketch -->
    <title>cloud3</title>
    <desc>Created with Sketch.</desc>
    <defs></defs>
    <g id="Page-1" stroke="none" stroke-width="1" fill="none" fill-rule="evenodd">
        <g id="Artboard-1" transform="translate(-26.000000, -101.000000)" fill="#ECECEB">
            <path d="M100.432682,110.925331 C95.9148103,110.925331 91.7164958,112.264916 88.187347,114.548912 C83.3959992,106.449378 74.5896562,101 64.4880565,101 C49.280561,101 36.9520815,113.312373 36.9520815,128.5 C36.9520815,130.295784 37.1374043,132.047548 37.4669786,133.74729 C37.3597918,133.745289 37.256612,133.732283 37.1484235,133.732283 C30.9916969,133.732283 26,138.716458 26,144.866142 C26,151.014825 30.9916969,156 37.1484235,156 L100.432682,156 C112.896397,156 123,145.909597 123,133.462165 C123,121.015734 112.896397,110.925331 100.432682,110.925331" id="cloud3"></path>
        </g>
    </g>
</svg>