<?xml version="1.0" encoding="UTF-8" standalone="no"?>
<svg width="102px" height="55px" viewBox="0 0 102 55" version="1.1" xmlns="http://www.w3.org/2000/svg" xmlns:xlink="http://www.w3.org/1999/xlink">
    <!-- Generator: Sketch 50.2 (55047) - http://www.bohemiancoding.com/sketch -->
    <title>cloud4</title>
    <desc>Created with Sketch.</desc>
    <defs></defs>
    <g id="Page-1" stroke="none" stroke-width="1" fill="none" fill-rule="evenodd">
        <g id="Artboard-1" transform="translate(-175.000000, -101.000000)" fill="#ECECEB">
            <path d="M249.455561,101 C239.350856,101 230.541806,106.449378 225.748986,114.548912 C222.218752,112.264916 218.018145,110.924331 213.497883,110.924331 C201.031339,110.924331 190.92463,121.014734 190.92463,133.462165 C190.92463,133.93037 190.966716,134.387569 190.994774,134.84777 C189.527768,134.139461 187.890413,133.731283 186.15185,133.731283 C179.993231,133.731283 175,138.716458 175,144.866142 C175,151.014825 179.993231,156 186.15185,156 L249.455561,156 C264.668733,156 277,143.687627 277,128.5 C277,113.312373 264.668733,101 249.455561,101" id="cloud4"></path>
        </g>
    </g>
</svg>