<?xml version="1.0" encoding="UTF-8" standalone="no"?>
<svg width="102px" height="56px" viewBox="0 0 102 56" version="1.1" xmlns="http://www.w3.org/2000/svg" xmlns:xlink="http://www.w3.org/1999/xlink">
    <!-- Generator: Sketch 50.2 (55047) - http://www.bohemiancoding.com/sketch -->
    <title>cloud1</title>
    <desc>Created with Sketch.</desc>
    <defs></defs>
    <g id="Page-1" stroke="none" stroke-width="1" fill="none" fill-rule="evenodd">
        <g id="Artboard-1" transform="translate(-10.000000, -10.000000)" fill="#C5C5C5" fill-opacity="0.9">
            <path d="M100.6616,43.1753 C98.9276,43.1753 97.2926,43.5833 95.8296,44.2913 C95.8576,43.8303 95.8996,43.3733 95.8996,42.9063 C95.8996,30.4643 85.8136,20.3783 73.3716,20.3783 C68.8606,20.3783 64.6696,21.7173 61.1456,24.0013 C56.3636,15.9053 47.5716,10.4583 37.4876,10.4583 C22.3076,10.4583 9.9996,22.7643 9.9996,37.9463 C9.9996,53.1273 22.3076,65.4333 37.4876,65.4333 L100.6616,65.4333 C106.8076,65.4333 111.7906,60.4513 111.7906,54.3043 C111.7906,48.1583 106.8076,43.1753 100.6616,43.1753" id="cloud1"></path>
        </g>
    </g>
</svg>