<?xml version="1.0" encoding="UTF-8" standalone="no"?>
<svg width="97px" height="55px" viewBox="0 0 97 55" version="1.1" xmlns="http://www.w3.org/2000/svg" xmlns:xlink="http://www.w3.org/1999/xlink">
    <!-- Generator: Sketch 50.2 (55047) - http://www.bohemiancoding.com/sketch -->
    <title>cloud2</title>
    <desc>Created with Sketch.</desc>
    <defs></defs>
    <g id="Page-1" stroke="none" stroke-width="1" fill="none" fill-rule="evenodd">
        <g id="Artboard-1" transform="translate(-207.000000, -10.000000)" fill="#C5C5C5" fill-opacity="0.9">
            <path d="M292.851461,42.7312827 C292.744273,42.7312827 292.640091,42.7442884 292.533905,42.7472897 C292.863482,41.047548 293.047805,39.2957836 293.047805,37.5 C293.047805,22.3113722 280.7202,10 265.511546,10 C255.409842,10 246.603408,15.4483775 241.813012,23.5479118 C238.282826,21.2639152 234.085469,19.9243306 229.56655,19.9243306 C217.103708,19.9243306 207,30.0147337 207,42.4621653 C207,54.9085965 217.103708,65 229.56655,65 L292.851461,65 C299.008252,65 304,60.0148247 304,53.8651412 C304,47.7164581 299.008252,42.7312827 292.851461,42.7312827" id="cloud2"></path>
        </g>
    </g>
</svg>