<?xml version="1.0" encoding="UTF-8" standalone="no"?>
<svg width="91px" height="175px" viewBox="0 0 91 175" version="1.1" xmlns="http://www.w3.org/2000/svg" xmlns:xlink="http://www.w3.org/1999/xlink">
    <!-- Generator: Sketch 50.2 (55047) - http://www.bohemiancoding.com/sketch -->
    <title>Fish</title>
    <desc>Created with Sketch.</desc>
    <defs></defs>
    <g id="Page-1" stroke="none" stroke-width="1" fill="none" fill-rule="evenodd">
        <path d="M91.9469167,88.1291231 C88.0912145,88.1291231 84.9637561,85.0026623 84.9637561,81.1459625 C84.9637561,77.2892626 88.0912145,74.1628019 91.9469167,74.1628019 C95.8036166,74.1628019 98.9300773,77.2892626 98.9300773,81.1459625 C98.9300773,85.0026623 95.8036166,88.1291231 91.9469167,88.1291231 Z M110.652809,93.1170949 L126.541494,83.7267391 C71.4144294,6.82518173 -2.74075071,61.0274768 -2.74075071,61.0274768 L5.2170596,68.67304 C-1.7331804,73.7368291 -7.22094704,79.0071201 -11.1125627,83.2199612 L-41.480333,65.6832497 L-28.0128089,90.623109 L-42.4779273,121.548535 L-8.89890077,103.995862 C2.01577926,116.035828 23.2595514,132.522073 57.7803071,132.522073 C93.7395938,132.522073 122.340624,109.643243 132.522073,97.5274597 L110.652809,93.1170949 Z" id="Fish" fill="#fff" transform="translate(45.022073, 87.500000) rotate(-90.000000) translate(-45.022073, -87.500000) "></path>
    </g>
</svg>