<?xml version="1.0" encoding="UTF-8" standalone="no"?>
<svg width="175px" height="90px" viewBox="0 0 175 90" version="1.1" xmlns="http://www.w3.org/2000/svg" xmlns:xlink="http://www.w3.org/1999/xlink">
    <!-- Generator: Sketch 50.2 (55047) - http://www.bohemiancoding.com/sketch -->
    <title>Fish</title>
    <desc>Created with Sketch.</desc>
    <defs></defs>
    <g id="Page-1" stroke="none" stroke-width="1" fill="none" fill-rule="evenodd">
        <g id="Artboard-1" fill="#1D1D1B">
            <path d="M134.749,45.7612 C130.884,45.7612 127.749,42.6272 127.749,38.7612 C127.749,34.8952 130.884,31.7612 134.749,31.7612 C138.615,31.7612 141.749,34.8952 141.749,38.7612 C141.749,42.6272 138.615,45.7612 134.749,45.7612 Z M153.5,50.7612 L169.427,41.3482 C114.167,-35.7388 39.833,18.5942 39.833,18.5942 L47.81,26.2582 C40.843,31.3342 35.342,36.6172 31.441,40.8402 L1,23.2612 L14.5,48.2612 L0,79.2612 L33.66,61.6662 C44.601,73.7352 65.896,90.2612 100.5,90.2612 C136.546,90.2612 165.216,67.3272 175.422,55.1822 L153.5,50.7612 Z" id="Fish"></path>
        </g>
    </g>
</svg>