<?xml version="1.0" encoding="UTF-8" standalone="no"?>
<svg width="354px" height="95px" viewBox="0 0 354 95" version="1.1" xmlns="http://www.w3.org/2000/svg" xmlns:xlink="http://www.w3.org/1999/xlink">
    <!-- Generator: Sketch 50.2 (55047) - http://www.bohemiancoding.com/sketch -->
    <title>Title</title>
    <desc>Created with Sketch.</desc>
    <defs></defs>
    <g id="Page-1" stroke="none" stroke-width="1" fill="none" fill-rule="evenodd">
        <g id="Startpage" transform="translate(-223.000000, -220.000000)" fill="#FFFFFF">
            <g id="Title" transform="translate(223.000000, 197.000000)">
                <path d="M75.3583984,56.5 L71.8427734,56.9394531 L63.2001953,94 L55.2607422,94 L47.4384766,65.8457031 L47.2626953,65.8457031 L39.4404297,94 L31.5009766,94 L22.7998047,56.9394531 L19.3134766,56.5 L19.3134766,51.34375 L35.0166016,51.34375 L35.0166016,56.5 L31.1201172,57.1738281 L36.0126953,80.5527344 L36.1884766,80.5820312 L44.1865234,51.34375 L50.4853516,51.34375 L58.5419922,80.5820312 L58.7177734,80.5527344 L63.5810547,57.1738281 L59.6845703,56.5 L59.6845703,51.34375 L75.3583984,51.34375 L75.3583984,56.5 Z M77.6142578,88.8730469 L81.7451172,87.9941406 L81.7451172,54.3320312 L77.1748047,53.453125 L77.1748047,48.296875 L90.2705078,48.296875 L90.2705078,66.34375 C91.2666065,64.8788989 92.4872975,63.741215 93.9326172,62.9306641 C95.3779369,62.1201131 96.9794834,61.7148438 98.7373047,61.7148438 C102.057634,61.7148438 104.660147,62.8134656 106.544922,65.0107422 C108.429697,67.2080188 109.37207,70.6015396 109.37207,75.1914062 L109.37207,87.9941406 L113.473633,88.8730469 L113.473633,94 L97.1259766,94 L97.1259766,88.8730469 L100.817383,87.9941406 L100.817383,75.1328125 C100.817383,72.6718627 100.382817,70.9287161 99.5136719,69.9033203 C98.6445269,68.8779246 97.3505945,68.3652344 95.6318359,68.3652344 C94.4404237,68.3652344 93.4003951,68.580076 92.5117188,69.0097656 C91.6230424,69.4394553 90.8759796,70.044918 90.2705078,70.8261719 L90.2705078,87.9941406 L93.9619141,88.8730469 L93.9619141,94 L77.6142578,94 L77.6142578,88.8730469 Z M136.413086,94 C136.17871,93.4726536 135.973634,92.9306668 135.797852,92.3740234 C135.622069,91.81738 135.485352,91.2558622 135.387695,90.6894531 C134.372065,91.861334 133.136726,92.8085901 131.681641,93.53125 C130.226555,94.2539099 128.561533,94.6152344 126.686523,94.6152344 C123.581039,94.6152344 121.115244,93.7705163 119.289062,92.0810547 C117.462881,90.3915931 116.549805,88.0918114 116.549805,85.1816406 C116.549805,82.2128758 117.741199,79.9179769 120.124023,78.296875 C122.506848,76.6757731 126.002907,75.8652344 130.612305,75.8652344 L134.977539,75.8652344 L134.977539,72.7597656 C134.977539,71.2363205 134.53809,70.0546917 133.65918,69.2148438 C132.780269,68.3749958 131.481454,67.9550781 129.762695,67.9550781 C128.786128,67.9550781 127.916996,68.0673817 127.155273,68.2919922 C126.393551,68.5166027 125.778323,68.7851547 125.30957,69.0976562 L124.75293,72.4960938 L118.307617,72.4960938 L118.336914,65.4648438 C119.899422,64.410151 121.691396,63.521488 123.712891,62.7988281 C125.734385,62.0761683 127.936512,61.7148438 130.319336,61.7148438 C134.245137,61.7148438 137.433581,62.6767482 139.884766,64.6005859 C142.33595,66.5244237 143.561523,69.2636541 143.561523,72.8183594 L143.561523,85.9140625 C143.561523,86.4023462 143.566406,86.861326 143.576172,87.2910156 C143.585938,87.7207053 143.620117,88.1308574 143.678711,88.5214844 L146.286133,88.8730469 L146.286133,94 L136.413086,94 Z M129.000977,88.2871094 C130.290046,88.2871094 131.461909,88.0087918 132.516602,87.4521484 C133.571294,86.895505 134.391599,86.1972698 134.977539,85.3574219 L134.977539,80.5234375 L130.612305,80.5234375 C128.795889,80.5234375 127.41895,80.9482379 126.481445,81.7978516 C125.543941,82.6474652 125.075195,83.6679628 125.075195,84.859375 C125.075195,85.9335991 125.421872,86.7734345 126.115234,87.3789062 C126.808597,87.984378 127.770502,88.2871094 129.000977,88.2871094 Z M148.27832,53.453125 L148.27832,48.296875 L161.40332,48.296875 L161.40332,87.9941406 L165.53418,88.8730469 L165.53418,94 L148.717773,94 L148.717773,88.8730469 L152.848633,87.9941406 L152.848633,54.3320312 L148.27832,53.453125 Z M183.493164,94.6152344 C178.922829,94.6152344 175.270521,93.1504053 172.536133,90.2207031 C169.801744,87.291001 168.43457,83.5703351 168.43457,79.0585938 L168.43457,77.8867188 C168.43457,73.179664 169.728503,69.3027496 172.316406,66.2558594 C174.90431,63.2089691 178.375955,61.6953124 182.731445,61.7148438 C187.00881,61.7148438 190.32909,63.0038934 192.692383,65.5820312 C195.055676,68.1601691 196.237305,71.6464624 196.237305,76.0410156 L196.237305,80.6992188 L177.311523,80.6992188 L177.25293,80.875 C177.40918,82.9648542 178.107416,84.683587 179.347656,86.03125 C180.587897,87.378913 182.27245,88.0527344 184.401367,88.0527344 C186.295908,88.0527344 187.868158,87.8623066 189.118164,87.4814453 C190.36817,87.100584 191.735344,86.5000041 193.219727,85.6796875 L195.53418,90.953125 C194.225579,91.9882864 192.53126,92.8574184 190.451172,93.5605469 C188.371083,94.2636754 186.051771,94.6152344 183.493164,94.6152344 Z M182.731445,68.3066406 C181.149406,68.3066406 179.899419,68.9121033 178.981445,70.1230469 C178.063472,71.3339904 177.497071,72.9257714 177.282227,74.8984375 L177.370117,75.0449219 L187.858398,75.0449219 L187.858398,74.2832031 C187.858398,72.4667878 187.433598,71.016607 186.583984,69.9326172 C185.734371,68.8486274 184.450204,68.3066406 182.731445,68.3066406 Z M252.34082,51.34375 L252.34082,62.7109375 L245.77832,62.7109375 L245.426758,57.9355469 L237.575195,57.9355469 L237.575195,87.9941406 L242.145508,88.8730469 L242.145508,94 L224.450195,94 L224.450195,88.8730469 L229.020508,87.9941406 L229.020508,57.9355469 L221.198242,57.9355469 L220.84668,62.7109375 L214.313477,62.7109375 L214.313477,51.34375 L252.34082,51.34375 Z M275.514648,94 C275.280272,93.4726536 275.075196,92.9306668 274.899414,92.3740234 C274.723632,91.81738 274.586915,91.2558622 274.489258,90.6894531 C273.473628,91.861334 272.238289,92.8085901 270.783203,93.53125 C269.328118,94.2539099 267.663095,94.6152344 265.788086,94.6152344 C262.682602,94.6152344 260.216806,93.7705163 258.390625,92.0810547 C256.564444,90.3915931 255.651367,88.0918114 255.651367,85.1816406 C255.651367,82.2128758 256.842762,79.9179769 259.225586,78.296875 C261.60841,76.6757731 265.104469,75.8652344 269.713867,75.8652344 L274.079102,75.8652344 L274.079102,72.7597656 C274.079102,71.2363205 273.639653,70.0546917 272.760742,69.2148438 C271.881832,68.3749958 270.583016,67.9550781 268.864258,67.9550781 C267.88769,67.9550781 267.018558,68.0673817 266.256836,68.2919922 C265.495113,68.5166027 264.879885,68.7851547 264.411133,69.0976562 L263.854492,72.4960938 L257.40918,72.4960938 L257.438477,65.4648438 C259.000984,64.410151 260.792959,63.521488 262.814453,62.7988281 C264.835948,62.0761683 267.038074,61.7148438 269.420898,61.7148438 C273.346699,61.7148438 276.535144,62.6767482 278.986328,64.6005859 C281.437512,66.5244237 282.663086,69.2636541 282.663086,72.8183594 L282.663086,85.9140625 C282.663086,86.4023462 282.667969,86.861326 282.677734,87.2910156 C282.6875,87.7207053 282.721679,88.1308574 282.780273,88.5214844 L285.387695,88.8730469 L285.387695,94 L275.514648,94 Z M268.102539,88.2871094 C269.391608,88.2871094 270.563471,88.0087918 271.618164,87.4521484 C272.672857,86.895505 273.493161,86.1972698 274.079102,85.3574219 L274.079102,80.5234375 L269.713867,80.5234375 C267.897452,80.5234375 266.520512,80.9482379 265.583008,81.7978516 C264.645503,82.6474652 264.176758,83.6679628 264.176758,84.859375 C264.176758,85.9335991 264.523434,86.7734345 265.216797,87.3789062 C265.91016,87.984378 266.872064,88.2871094 268.102539,88.2871094 Z M287.379883,53.453125 L287.379883,48.296875 L300.504883,48.296875 L300.504883,87.9941406 L304.635742,88.8730469 L304.635742,94 L287.819336,94 L287.819336,88.8730469 L291.950195,87.9941406 L291.950195,54.3320312 L287.379883,53.453125 Z M322.594727,94.6152344 C318.024391,94.6152344 314.372084,93.1504053 311.637695,90.2207031 C308.903307,87.291001 307.536133,83.5703351 307.536133,79.0585938 L307.536133,77.8867188 C307.536133,73.179664 308.830065,69.3027496 311.417969,66.2558594 C314.005872,63.2089691 317.477517,61.6953124 321.833008,61.7148438 C326.110373,61.7148438 329.430652,63.0038934 331.793945,65.5820312 C334.157238,68.1601691 335.338867,71.6464624 335.338867,76.0410156 L335.338867,80.6992188 L316.413086,80.6992188 L316.354492,80.875 C316.510743,82.9648542 317.208978,84.683587 318.449219,86.03125 C319.689459,87.378913 321.374013,88.0527344 323.50293,88.0527344 C325.39747,88.0527344 326.96972,87.8623066 328.219727,87.4814453 C329.469733,87.100584 330.836907,86.5000041 332.321289,85.6796875 L334.635742,90.953125 C333.327142,91.9882864 331.632823,92.8574184 329.552734,93.5605469 C327.472646,94.2636754 325.153333,94.6152344 322.594727,94.6152344 Z M321.833008,68.3066406 C320.250969,68.3066406 319.000981,68.9121033 318.083008,70.1230469 C317.165034,71.3339904 316.598634,72.9257714 316.383789,74.8984375 L316.47168,75.0449219 L326.959961,75.0449219 L326.959961,74.2832031 C326.959961,72.4667878 326.53516,71.016607 325.685547,69.9326172 C324.835933,68.8486274 323.551766,68.3066406 321.833008,68.3066406 Z" id="Whale-Tale"></path>
                <path d="M170.350586,23.78125 L170.350586,26.9257812 L168.709961,26.9257812 L168.563477,25.2949219 L165.40918,25.2949219 L165.40918,36.4960938 L167.000977,36.7695312 L167.000977,38 L161.893555,38 L161.893555,36.7695312 L163.485352,36.4960938 L163.485352,25.2949219 L160.321289,25.2949219 L160.18457,26.9257812 L158.53418,26.9257812 L158.53418,23.78125 L170.350586,23.78125 Z M171.405273,25.0214844 L171.405273,23.78125 L176.512695,23.78125 L176.512695,25.0214844 L174.920898,25.2949219 L174.920898,30.2070312 L181.81543,30.2070312 L181.81543,25.2949219 L180.223633,25.0214844 L180.223633,23.78125 L185.331055,23.78125 L185.331055,25.0214844 L183.739258,25.2949219 L183.739258,36.4960938 L185.331055,36.7695312 L185.331055,38 L180.223633,38 L180.223633,36.7695312 L181.81543,36.4960938 L181.81543,31.7207031 L174.920898,31.7207031 L174.920898,36.4960938 L176.512695,36.7695312 L176.512695,38 L171.405273,38 L171.405273,36.7695312 L172.99707,36.4960938 L172.99707,25.2949219 L171.405273,25.0214844 Z M186.766602,38 L186.766602,36.7695312 L188.358398,36.4960938 L188.358398,25.2949219 L186.766602,25.0214844 L186.766602,23.78125 L197.68457,23.78125 L197.68457,27.1992188 L196.03418,27.1992188 L195.87793,25.2949219 L190.282227,25.2949219 L190.282227,29.8945312 L195.72168,29.8945312 L195.72168,31.4082031 L190.282227,31.4082031 L190.282227,36.4960938 L195.995117,36.4960938 L196.151367,34.5917969 L197.791992,34.5917969 L197.791992,38 L186.766602,38 Z" id="The"></path>
                <rect id="Rectangle-2" x="210" y="30" width="144" height="1"></rect>
                <rect id="Rectangle-2" x="0" y="30" width="144" height="1"></rect>
                <rect id="Rectangle-2" x="0" y="117" width="354" height="1"></rect>
            </g>
        </g>
    </g>
</svg>