<?xml version="1.0" encoding="UTF-8" standalone="no"?>
<svg width="166px" height="211px" viewBox="0 0 166 211" version="1.1" xmlns="http://www.w3.org/2000/svg" xmlns:xlink="http://www.w3.org/1999/xlink">
    <!-- Generator: Sketch 50.2 (55047) - http://www.bohemiancoding.com/sketch -->
    <title>Whale</title>
    <desc>Created with Sketch.</desc>
    <defs></defs>
    <g id="Page-1" stroke="none" stroke-width="1" fill="none" fill-rule="evenodd">
        <g id="Artboard-1" fill="#FEFEFE">
            <g id="Whale">
                <path d="M103.3506,164.317 C102.8856,167.039 100.3026,168.869 97.5806,168.404 C94.8586,167.939 93.0296,165.356 93.4936,162.634 C93.9576,159.912 96.5416,158.082 99.2636,158.546 C101.9866,159.011 103.8156,161.595 103.3506,164.317 M131.7026,27.977 C131.7026,27.977 115.4906,12.021 98.0756,22.912 C98.8556,32.113 116.8306,53.908 138.2676,44.571 C135.4426,50.374 122.7846,73.042 90.2876,90.313 C52.7246,110.275 9.0386,126.487 4.2626,128.715 C-0.5134,130.943 -0.9064,133.243 1.2656,138.348 C3.4376,143.453 28.5686,204.216 29.8196,206.797 C31.0696,209.378 33.9616,212.238 39.3956,210.123 C41.4736,209.314 52.4186,204.675 65.1416,199.255 L76.9086,180.718 C77.6466,179.552 79.1926,179.207 80.3586,179.947 C81.2356,180.504 81.6476,181.516 81.4836,182.48 C81.4296,182.797 81.3126,183.109 81.1286,183.398 L73.2596,195.795 C91.7626,187.902 110.8666,179.718 110.8666,179.718 C110.8666,179.718 156.0896,162.416 163.9996,116.087 C172.1606,68.297 145.4546,47.539 139.9106,43.794 C160.3066,33.489 159.8556,6.643 152.0356,0 C133.3296,4.584 131.7026,27.977 131.7026,27.977" id="Fill-1"></path>
                <path d="M33.543,70.9859 C32.99,70.9859 32.543,70.5379 32.543,69.9859 L32.543,19.3189 C32.543,18.7669 32.99,18.3189 33.543,18.3189 C34.096,18.3189 34.543,18.7669 34.543,19.3189 L34.543,69.9859 C34.543,70.5379 34.096,70.9859 33.543,70.9859" id="Fill-3"></path>
                <path d="M40.043,92.6568 C39.49,92.6568 39.043,92.2088 39.043,91.6568 L39.043,57.8208 C39.043,57.2688 39.49,56.8208 40.043,56.8208 C40.596,56.8208 41.043,57.2688 41.043,57.8208 L41.043,91.6568 C41.043,92.2088 40.596,92.6568 40.043,92.6568" id="Fill-5"></path>
                <path d="M22.041,59.8458 C21.488,59.8458 21.041,59.3978 21.041,58.8458 L21.041,37.3178 C21.041,36.7658 21.488,36.3178 22.041,36.3178 C22.594,36.3178 23.041,36.7658 23.041,37.3178 L23.041,58.8458 C23.041,59.3978 22.594,59.8458 22.041,59.8458" id="Fill-7"></path>
                <path d="M53.541,31.8458 C52.988,31.8458 52.541,31.3978 52.541,30.8458 L52.541,9.3178 C52.541,8.7658 52.988,8.3178 53.541,8.3178 C54.094,8.3178 54.541,8.7658 54.541,9.3178 L54.541,30.8458 C54.541,31.3978 54.094,31.8458 53.541,31.8458" id="Fill-9"></path>
                <path d="M27.041,108.3458 C26.488,108.3458 26.041,107.8978 26.041,107.3458 L26.041,91.7818 C26.041,91.2288 26.488,90.7818 27.041,90.7818 C27.594,90.7818 28.041,91.2288 28.041,91.7818 L28.041,107.3458 C28.041,107.8978 27.594,108.3458 27.041,108.3458" id="Fill-11"></path>
            </g>
        </g>
    </g>
</svg>