<?xml version="1.0" encoding="UTF-8" standalone="no"?>
<svg width="165px" height="211px" viewBox="0 0 165 211" version="1.1" xmlns="http://www.w3.org/2000/svg" xmlns:xlink="http://www.w3.org/1999/xlink">
    <!-- Generator: Sketch 50.2 (55047) - http://www.bohemiancoding.com/sketch -->
    <title>whale</title>
    <desc>Created with Sketch.</desc>
    <defs></defs>
    <g id="Page-1" stroke="none" stroke-width="1" fill="none" fill-rule="evenodd">
        <g id="Artboard" fill="#1D1D1B">
            <path d="M103.014822,163.783255 C102.551333,166.496413 99.9767232,168.320469 97.2635649,167.856979 C94.5504067,167.39349 92.7273478,164.81888 93.1898406,162.105722 C93.6523334,159.392564 96.2279399,157.568508 98.9410981,158.031001 C101.655253,158.49449 103.478312,161.070097 103.014822,163.783255 M131.274728,27.8861233 C131.274728,27.8861233 115.115389,11.9819526 97.756957,22.8375758 C98.5344234,32.0086885 116.451036,53.7328926 137.818403,44.4262217 C135.002579,50.210372 122.385696,72.8047403 89.9942545,90.0196396 C52.553269,109.916798 9.00917267,126.076137 4.24868638,128.2969 C-0.511799916,130.517663 -0.903523349,132.810192 1.26142142,137.898609 C3.42636619,142.987027 28.4757341,203.552653 29.7226705,206.125269 C30.9686102,208.697885 33.8512162,211.548595 39.2675651,209.440465 C41.3388152,208.634093 52.248263,204.010162 64.9299353,198.607767 L76.658713,180.13098 C77.3943158,178.968768 78.935294,178.624888 80.0975065,179.362485 C80.9716578,179.917675 81.3823195,180.926388 81.2188522,181.887257 C81.1650276,182.203227 81.0484077,182.514214 80.8650054,182.802275 L73.0215659,195.159006 C91.4644633,187.291645 110.506409,179.134229 110.506409,179.134229 C110.506409,179.134229 155.582512,161.88843 163.466819,115.709919 C171.601309,68.0751534 144.982058,47.3845808 139.456066,43.6517456 C159.785814,33.3802189 159.336279,6.62142179 151.541681,0 C132.896443,4.56910996 131.274728,27.8861233 131.274728,27.8861233" id="whale"></path>
        </g>
    </g>
</svg>