<?xml version="1.0" encoding="UTF-8"?>
<svg width="196px" height="151px" viewBox="0 0 196 151" version="1.1" xmlns="http://www.w3.org/2000/svg" xmlns:xlink="http://www.w3.org/1999/xlink">
    <!-- Generator: Sketch 51.1 (57501) - http://www.bohemiancoding.com/sketch -->
    <title>whale (1)</title>
    <desc>Created with Sketch.</desc>
    <defs></defs>
    <g id="Page-1" stroke="none" stroke-width="1" fill="none" fill-rule="evenodd">
        <g id="Desktop" transform="translate(-267.000000, -259.000000)" fill="#FFFFFF" fill-rule="nonzero">
            <g id="whale-(1)" transform="translate(374.000000, 329.500000) scale(-1, 1) rotate(23.000000) translate(-374.000000, -329.500000) translate(291.000000, 224.000000)">
                <path d="M132.053153,28.2103383 C132.053153,28.2103383 115.807641,12.2044726 98.3587581,23.1084686 C99.1610056,32.3118414 117.211574,54.1198334 138.671695,44.816424 C135.863829,50.6185503 123.12815,73.3268723 90.536845,90.5331779 C52.8312124,110.54051 9.10872352,126.746449 4.2952385,128.947256 C-0.51824651,131.148062 -0.919370261,133.448905 1.28681037,138.550775 C3.492991,143.652645 28.6635064,204.474934 29.9671586,206.975851 C31.2708108,209.476767 34.078677,212.377831 39.5941286,210.277061 C41.7000283,209.476767 52.6306505,204.875081 65.3663296,199.373065 L77.1994803,180.866283 C77.9014468,179.665843 79.5059418,179.365733 80.7093131,180.065989 C81.6118415,180.666209 82.0129653,181.666576 81.8124034,182.566906 C81.7121225,182.867016 81.6118415,183.167126 81.4112796,183.467236 L73.4890856,195.871782 C92.041059,187.968885 111.194718,179.765879 111.194718,179.765879 C111.194718,179.765879 156.521702,162.459537 164.443896,116.142563 C172.666933,68.3250392 145.891923,47.6174505 140.27619,43.8160574 C160.733501,33.5122813 160.232097,6.60241961 152.410184,0 C133.657648,4.80175971 132.053153,28.2103383 132.053153,28.2103383 Z M103.573367,164.560307 C103.071962,167.261297 100.564939,169.161993 97.7570725,168.66181 C95.0494872,168.161627 93.1441494,165.66071 93.645554,162.859684 C94.1469587,160.158694 96.6539822,158.257997 99.4618484,158.758181 C102.169434,159.258364 104.074772,161.859317 103.573367,164.560307 Z" id="Shape"></path>
            </g>
        </g>
    </g>
</svg>