<?xml version="1.0" encoding="utf-8"?>
<!-- Generator: Adobe Illustrator 21.1.0, SVG Export Plug-In . SVG Version: 6.00 Build 0)  -->
<svg version="1.1" id="Ebene_1" xmlns="http://www.w3.org/2000/svg" xmlns:xlink="http://www.w3.org/1999/xlink" x="0px" y="0px"
	 viewBox="0 0 841.9 595.3" style="enable-background:new 0 0 841.9 595.3;" xml:space="preserve">
<path d="M466.7,218.7c0,0-16.2-16-33.6-5.1c0.8,9.2,18.8,31,40.2,21.7c-2.8,5.8-15.5,28.5-48,45.7c-37.6,20-81.2,36.2-86,38.4
	c-4.8,2.2-5.2,4.5-3,9.6c2.2,5.1,27.3,65.9,28.6,68.4s4.1,5.4,9.6,3.3c2.1-0.8,13-5.4,25.7-10.9l11.8-18.5c0.7-1.2,2.3-1.5,3.5-0.8
	c0.9,0.6,1.3,1.6,1.1,2.5c-0.1,0.3-0.2,0.6-0.4,0.9l-7.9,12.4c18.5-7.9,37.6-16.1,37.6-16.1s45.2-17.3,53.1-63.6
	c8.2-47.8-18.5-68.5-24.1-72.3c20.4-10.3,19.9-37.2,12.1-43.8C468.3,195.3,466.7,218.7,466.7,218.7z M438.3,355
	c-0.5,2.7-3,4.6-5.8,4.1c-2.7-0.5-4.6-3-4.1-5.8c0.5-2.7,3-4.6,5.8-4.1C436.9,349.7,438.8,352.3,438.3,355z"/>
</svg>
